<svg width="27" height="27" fill="none" xmlns="http://www.w3.org/2000/svg"><g clip-path="url(#a)"><path d="M26.026 13.511c0-7.35-5.668-13.304-12.662-13.304C6.369.207.7 6.162.7 13.511c0 6.64 4.63 12.145 10.684 13.143v-9.297H8.168v-3.846h3.217V10.58c0-3.334 1.89-5.176 4.783-5.176 1.385 0 2.834.26 2.834.26v3.272h-1.597c-1.572 0-2.063 1.026-2.063 2.078v2.497h3.512l-.562 3.846h-2.95v9.297c6.053-.998 10.684-6.503 10.684-13.143z" fill="#393833"/></g><defs><clipPath id="a"><path fill="#fff" transform="translate(.701 .207)" d="M0 0H25.325V26.608H0z"/></clipPath></defs></svg>