<!DOCTYPE svg PUBLIC "-//W3C//DTD SVG 1.1//EN" "http://www.w3.org/Graphics/SVG/1.1/DTD/svg11.dtd">
<!-- Uploaded to: SVG Repo, www.svgrepo.com, Transformed by: SVG Repo Mixer Tools -->
<svg fill="#4DD0E2" height="800px" width="800px" version="1.1" id="Layer_1" xmlns="http://www.w3.org/2000/svg" xmlns:xlink="http://www.w3.org/1999/xlink" viewBox="0 0 512 512" xml:space="preserve">
<g id="SVGRepo_bgCarrier" stroke-width="0"/>
<g id="SVGRepo_tracerCarrier" stroke-linecap="round" stroke-linejoin="round"/>
<g id="SVGRepo_iconCarrier"> <g> <g> <path d="M505.152,192.975l-62.054-62.011c-4.362-4.359-10.276-6.809-16.443-6.81l-147.385-0.039V23.27 c0-12.851-10.419-23.27-23.27-23.27H85.349c-6.171,0-12.091,2.453-16.454,6.817L6.841,68.871 c-4.367,4.364-6.818,10.286-6.817,16.458c0.002,6.173,2.457,12.093,6.823,16.455l62.054,62.013 c4.362,4.361,10.275,6.809,16.443,6.81l147.385,0.037v77.573H85.35c-6.171,0-12.091,2.453-16.454,6.818L6.842,317.09 c-4.367,4.364-6.818,10.284-6.817,16.457c0.002,6.174,2.456,12.093,6.823,16.457l62.054,62.013 c4.362,4.359,10.275,6.809,16.443,6.809l147.385,0.037v69.867c0,12.853,10.419,23.27,23.27,23.27 c12.851,0,23.27-10.417,23.27-23.27v-93.043c0-0.016-0.003-0.029-0.003-0.043c0-0.017,0.003-0.031,0.003-0.047V294.758h147.379 c6.171,0,12.091-2.451,16.454-6.815l62.054-62.054c4.366-4.366,6.818-10.287,6.817-16.458 C511.973,203.258,509.519,197.338,505.152,192.975z"/> </g> </g> </g>
</svg>