<svg width="26" height="27" fill="none" xmlns="http://www.w3.org/2000/svg"><g clip-path="url(#a)"><path d="M12.815 6.69c-3.594 0-6.492 3.045-6.492 6.821s2.898 6.822 6.492 6.822c3.593 0 6.491-3.046 6.491-6.822 0-3.776-2.898-6.822-6.492-6.822zm0 11.256c-2.322 0-4.22-1.989-4.22-4.435 0-2.446 1.892-4.435 4.22-4.435 2.327 0 4.22 1.989 4.22 4.435 0 2.447-1.898 4.436-4.22 4.436zm8.27-11.536c0 .885-.677 1.591-1.514 1.591-.841 0-1.514-.712-1.514-1.59 0-.88.678-1.592 1.515-1.592.836 0 1.514.712 1.514 1.591zm4.3 1.615c-.096-2.131-.56-4.02-2.045-5.575C21.86.894 20.063.407 18.035.3 15.945.177 9.679.177 7.589.3c-2.023.101-3.82.588-5.305 2.144C.798 4 .34 5.888.238 8.019c-.118 2.197-.118 8.782 0 10.978.096 2.132.56 4.02 2.046 5.576 1.485 1.555 3.276 2.042 5.305 2.149 2.09.125 8.355.125 10.446 0 2.028-.101 3.825-.588 5.305-2.15 1.48-1.555 1.943-3.443 2.045-5.575.119-2.196.119-8.775 0-10.972zm-2.7 13.33c-.441 1.163-1.294 2.06-2.407 2.529-1.667.694-5.622.534-7.463.534-1.842 0-5.803.155-7.464-.534-1.107-.463-1.96-1.36-2.406-2.53-.661-1.751-.509-5.907-.509-7.843 0-1.935-.147-6.097.509-7.843.44-1.164 1.293-2.06 2.406-2.53 1.667-.694 5.622-.534 7.464-.534 1.841 0 5.802-.154 7.463.535 1.107.463 1.96 1.36 2.407 2.529.66 1.751.508 5.908.508 7.843 0 1.936.153 6.098-.508 7.844z" fill="#393833"/></g><defs><clipPath id="a"><path fill="#fff" transform="translate(.15 .207)" d="M0 0H25.325V26.608H0z"/></clipPath></defs></svg>