<svg width="29" height="27" fill="none" xmlns="http://www.w3.org/2000/svg"><g clip-path="url(#a)"><path d="M25.591 6.735c.018.287.018.573.018.86 0 8.738-5.745 18.807-16.244 18.807-3.235 0-6.24-1.085-8.767-2.967.46.061.901.082 1.378.082 2.67 0 5.126-1.044 7.088-2.825-2.51-.06-4.613-1.964-5.338-4.584.354.062.707.102 1.079.102a5.27 5.27 0 001.502-.225c-2.616-.614-4.578-3.274-4.578-6.487v-.082c.76.491 1.644.798 2.58.84C2.773 9.067 1.765 7.041 1.765 4.75c0-1.228.283-2.353.778-3.336 2.81 4.012 7.035 6.631 11.772 6.918a8.592 8.592 0 01-.141-1.515c0-3.643 2.545-6.61 5.709-6.61 1.644 0 3.129.798 4.171 2.087A10.36 10.36 0 0027.677.698c-.424 1.535-1.326 2.824-2.51 3.643 1.15-.143 2.263-.512 3.288-1.023a13.503 13.503 0 01-2.864 3.417z" fill="#393833"/></g><defs><clipPath id="a"><path fill="#fff" transform="translate(.598 .207)" d="M0 0H27.857V26.608H0z"/></clipPath></defs></svg>