<svg width="30" height="23" fill="none" xmlns="http://www.w3.org/2000/svg"><g clip-path="url(#a)"><path d="M29.294 3.844c-.335-1.327-1.322-2.371-2.575-2.726C24.45.474 15.341.474 15.341.474s-9.107 0-11.378.644c-1.253.355-2.24 1.4-2.575 2.726-.609 2.405-.609 7.421-.609 7.421s0 5.017.609 7.422c.335 1.327 1.322 2.328 2.575 2.682 2.27.645 11.378.645 11.378.645s9.107 0 11.378-.645c1.253-.354 2.24-1.355 2.575-2.682.609-2.405.609-7.422.609-7.422s0-5.016-.609-7.421zM12.362 15.82V6.71l7.612 4.556-7.612 4.554z" fill="#393833"/></g><defs><clipPath id="a"><path fill="#fff" transform="translate(.78 .474)" d="M0 0H29.123V21.54H0z"/></clipPath></defs></svg>