<svg width="393" height="18" fill="none" xmlns="http://www.w3.org/2000/svg"><path fill="#4B4A45" d="M132 0H138V6H132zM60 0H66V6H60zM204 0H210V6H204zM0 12H6V18H0zM138 6H144V12H138zM144 12H150V18H144zM66 6H72V12H66zM72 12H78V18H72zM24 0H30V6H24zM168 0H174V6H168zM96 0H102V6H96zM30 6H36V12H30zM36 12H42V18H36zM174 6H180V12H174zM180 12H186V18H180zM102 6H108V12H102zM108 12H114V18H108zM0 0H6V6H0zM144 0H150V6H144zM72 0H78V6H72zM6 6H12V12H6zM12 12H18V18H12zM150 6H156V12H150zM156 12H162V18H156zM78 6H84V12H78zM84 12H90V18H84zM36 0H42V6H36zM180 0H186V6H180zM108 0H114V6H108zM42 6H48V12H42zM48 12H54V18H48zM186 6H192V12H186zM192 12H198V18H192zM114 6H120V12H114zM120 12H126V18H120zM12 0H18V6H12zM156 0H162V6H156zM84 0H90V6H84zM18 6H24V12H18zM24 12H30V18H24zM162 6H168V12H162zM168 12H174V18H168zM90 6H96V12H90zM96 12H102V18H96zM48 0H54V6H48zM192 0H198V6H192zM120 0H126V6H120zM54 6H60V12H54zM60 12H66V18H60zM198 6H204V12H198zM204 12H210V18H204zM126 6H132V12H126zM132 12H138V18H132zM348 0H354V6H348zM276 0H282V6H276zM210 6H216V12H210zM216 12H222V18H216zM354 6H360V12H354zM360 12H366V18H360zM282 6H288V12H282zM288 12H294V18H288zM240 0H246V6H240zM384 0H390V6H384zM312 0H318V6H312zM246 6H252V12H246zM252 12H258V18H252zM390 6H396V12H390zM318 6H324V12H318zM324 12H330V18H324zM216 0H222V6H216zM360 0H366V6H360zM288 0H294V6H288zM222 6H228V12H222zM228 12H234V18H228zM366 6H372V12H366zM372 12H378V18H372zM294 6H300V12H294zM300 12H306V18H300zM252 0H258V6H252zM324 0H330V6H324zM258 6H264V12H258zM264 12H270V18H264zM330 6H336V12H330zM336 12H342V18H336zM228 0H234V6H228zM372 0H378V6H372zM300 0H306V6H300zM234 6H240V12H234zM240 12H246V18H240zM378 6H384V12H378zM384 12H390V18H384zM306 6H312V12H306zM312 12H318V18H312zM264 0H270V6H264zM336 0H342V6H336zM270 6H276V12H270zM276 12H282V18H276zM342 6H348V12H342zM348 12H354V18H348z"/></svg>